<svg width="18" height="19" viewBox="0 0 18 19" fill="none" xmlns="http://www.w3.org/2000/svg">
<path d="M8.52301 8.606C8.35901 8.69 8.24301 8.969 8.01101 9.526L7.81401 10.002C7.74501 10.165 7.71101 10.247 7.65601 10.31C7.60735 10.3647 7.54726 10.4081 7.48001 10.437C7.40401 10.471 7.31601 10.477 7.13901 10.492L6.62501 10.533C6.02401 10.581 5.72301 10.605 5.59301 10.736C5.53753 10.7916 5.49594 10.8596 5.47162 10.9343C5.44729 11.009 5.44092 11.0884 5.45301 11.166C5.48101 11.349 5.71001 11.546 6.16901 11.938L6.56001 12.273C6.69501 12.389 6.76201 12.446 6.80401 12.518C6.84161 12.5812 6.86483 12.6518 6.87201 12.725C6.88001 12.807 6.85901 12.894 6.81801 13.066L6.69801 13.567C6.55801 14.155 6.48801 14.448 6.57201 14.612C6.60778 14.6823 6.65968 14.7431 6.72347 14.7895C6.78725 14.8359 6.86111 14.8666 6.93901 14.879C7.12101 14.908 7.37901 14.75 7.89301 14.436L8.33301 14.167C8.48501 14.075 8.56001 14.028 8.64101 14.01C8.71279 13.994 8.78723 13.994 8.85901 14.01C8.93901 14.028 9.01601 14.075 9.16701 14.167L9.60701 14.436C10.122 14.75 10.379 14.908 10.561 14.879C10.6389 14.8666 10.7128 14.8359 10.7765 14.7895C10.8403 14.7431 10.8922 14.6823 10.928 14.612C11.012 14.448 10.942 14.155 10.802 13.567L10.682 13.067C10.642 12.894 10.62 12.807 10.628 12.725C10.6352 12.6518 10.6584 12.5812 10.696 12.518C10.738 12.446 10.806 12.388 10.94 12.273L11.331 11.938C11.79 11.545 12.019 11.348 12.048 11.167C12.0603 11.0892 12.054 11.0096 12.0296 10.9347C12.0053 10.8598 11.9636 10.7917 11.908 10.736C11.778 10.606 11.477 10.581 10.875 10.533L10.361 10.492C10.184 10.478 10.096 10.47 10.02 10.437C9.95275 10.4081 9.89267 10.3647 9.84401 10.31C9.78901 10.247 9.75401 10.165 9.68701 10.002L9.48901 9.526C9.25701 8.969 9.14101 8.69 8.97701 8.606C8.9067 8.57017 8.82891 8.5515 8.75001 8.5515C8.6711 8.5515 8.59331 8.57017 8.52301 8.606Z" fill="black"/>
<path d="M7.117 0H10.383C11.475 0 12.341 -7.82311e-08 13.038 0.0569999C13.752 0.115 14.355 0.237 14.907 0.517C15.8006 0.972845 16.527 1.69992 16.982 2.594C17.263 3.144 17.385 3.748 17.443 4.462C17.5 5.159 17.5 6.025 17.5 7.117V11.383C17.5 12.475 17.5 13.341 17.443 14.038C17.385 14.752 17.263 15.355 16.983 15.907C16.5274 16.8005 15.8007 17.5268 14.907 17.982C14.355 18.263 13.752 18.385 13.038 18.443C12.341 18.5 11.475 18.5 10.383 18.5H7.117C6.025 18.5 5.159 18.5 4.462 18.443C3.748 18.385 3.145 18.263 2.594 17.983C1.70014 17.5276 0.973414 16.8009 0.518 15.907C0.237 15.355 0.115 14.752 0.0569999 14.038C-7.82311e-08 13.341 0 12.475 0 11.383V7.117C0 6.025 -7.82311e-08 5.159 0.0569999 4.462C0.115 3.748 0.237 3.145 0.517 2.594C0.972675 1.69999 1.69977 0.973244 2.594 0.518C3.144 0.237 3.748 0.115 4.462 0.0569999C5.159 -7.82311e-08 6.025 0 7.117 0ZM1.5 6.75V11.35C1.5 12.483 1.5 13.287 1.552 13.916C1.602 14.536 1.699 14.921 1.854 15.226C2.16556 15.8374 2.66263 16.3344 3.274 16.646C3.579 16.801 3.964 16.897 4.584 16.948C5.214 16.999 6.018 17 7.15 17H10.35C11.483 17 12.287 17 12.916 16.948C13.536 16.898 13.921 16.801 14.226 16.646C14.8374 16.3344 15.3344 15.8374 15.646 15.226C15.801 14.921 15.897 14.536 15.948 13.916C15.999 13.286 16 12.482 16 11.35V6.75H1.5ZM6.25 3C5.98478 3 5.73043 3.10536 5.54289 3.29289C5.35536 3.48043 5.25 3.73478 5.25 4C5.25 4.26522 5.35536 4.51957 5.54289 4.70711C5.73043 4.89464 5.98478 5 6.25 5H11.25C11.5152 5 11.7696 4.89464 11.9571 4.70711C12.1446 4.51957 12.25 4.26522 12.25 4C12.25 3.73478 12.1446 3.48043 11.9571 3.29289C11.7696 3.10536 11.5152 3 11.25 3H6.25Z" fill="black"/>
</svg>
